<svg width="105" height="120" viewBox="0 0 105 120" fill="none" xmlns="http://www.w3.org/2000/svg">
<rect width="15" height="15" fill="#F99ECF"/>
<rect y="15" width="15" height="15" fill="#F99ECF"/>
<rect y="30" width="15" height="15" fill="#F99ECF"/>
<rect y="45" width="15" height="15" fill="#F99ECF"/>
<rect y="60" width="15" height="15" fill="#F99ECF"/>
<rect y="75" width="15" height="15" fill="#F99ECF"/>
<rect y="90" width="15" height="15" fill="#F99ECF"/>
<rect y="105" width="15" height="15" fill="#F99ECF"/>
<rect x="15" y="105" width="15" height="15" fill="#F99ECF"/>
<rect x="30" y="105" width="15" height="15" fill="#F99ECF"/>
<rect x="60" width="15" height="15" fill="#F99ECF"/>
<rect x="60" y="15" width="15" height="15" fill="#F99ECF"/>
<rect x="60" y="30" width="15" height="15" fill="#F99ECF"/>
<rect x="60" y="45" width="15" height="15" fill="#F99ECF"/>
<rect x="60" y="60" width="15" height="15" fill="#F99ECF"/>
<rect x="60" y="75" width="15" height="15" fill="#F99ECF"/>
<rect x="60" y="90" width="15" height="15" fill="#F99ECF"/>
<rect x="60" y="105" width="15" height="15" fill="#F99ECF"/>
<rect x="75" y="105" width="15" height="15" fill="#F99ECF"/>
<rect x="90" y="105" width="15" height="15" fill="#F99ECF"/>
<rect x="30" width="15" height="15" fill="#E30CB4"/>
<rect x="75" width="15" height="15" fill="#E30CB4"/>
<rect x="30" y="15" width="15" height="15" fill="#E30CB4"/>
<rect x="75" y="15" width="15" height="15" fill="#E30CB4"/>
<rect x="30" y="30" width="15" height="15" fill="#E30CB4"/>
<rect x="75" y="30" width="15" height="15" fill="#E30CB4"/>
<rect x="30" y="45" width="15" height="15" fill="#E30CB4"/>
<rect x="75" y="45" width="15" height="15" fill="#E30CB4"/>
<rect x="30" y="60" width="15" height="15" fill="#E30CB4"/>
<rect x="75" y="60" width="15" height="15" fill="#E30CB4"/>
<rect x="30" y="75" width="15" height="15" fill="#E30CB4"/>
<rect x="75" y="75" width="15" height="15" fill="#E30CB4"/>
<rect x="30" y="90" width="15" height="15" fill="#E30CB4"/>
<rect x="75" y="90" width="15" height="15" fill="#E30CB4"/>
<rect x="15" y="90" width="15" height="15" fill="#E30CB4"/>
<rect x="75" y="90" width="15" height="15" fill="#E30CB4"/>
<rect x="15" y="75" width="15" height="15" fill="#E30CB4"/>
<rect x="75" y="75" width="15" height="15" fill="#E30CB4"/>
<rect x="15" y="60" width="15" height="15" fill="#E30CB4"/>
<rect x="75" y="60" width="15" height="15" fill="#E30CB4"/>
<rect x="15" y="45" width="15" height="15" fill="#E30CB4"/>
<rect x="75" y="45" width="15" height="15" fill="#E30CB4"/>
<rect x="15" y="30" width="15" height="15" fill="#E30CB4"/>
<rect x="75" y="30" width="15" height="15" fill="#E30CB4"/>
<rect x="15" y="15" width="15" height="15" fill="#E30CB4"/>
<rect x="75" y="15" width="15" height="15" fill="#E30CB4"/>
<rect x="15" width="15" height="15" fill="#E30CB4"/>
<rect x="75" width="15" height="15" fill="#E30CB4"/>
<rect x="30" width="15" height="15" fill="#FF00C7"/>
<rect x="90" width="15" height="15" fill="#FF00C7"/>
<rect x="90" y="15" width="15" height="15" fill="#FF00C7"/>
<rect x="90" y="30" width="15" height="15" fill="#FF00C7"/>
<rect x="90" y="45" width="15" height="15" fill="#FF00C7"/>
<rect x="90" y="60" width="15" height="15" fill="#FF00C7"/>
<rect x="90" y="75" width="15" height="15" fill="#FF00C7"/>
<rect x="90" y="90" width="15" height="15" fill="#FF00C7"/>
<rect x="30" y="15" width="15" height="15" fill="#FF00C7"/>
<rect x="30" y="30" width="15" height="15" fill="#FF00C7"/>
<rect x="30" y="45" width="15" height="15" fill="#FF00C7"/>
<rect x="30" y="60" width="15" height="15" fill="#FF00C7"/>
<rect x="30" y="75" width="15" height="15" fill="#FF00C7"/>
<rect x="30" y="90" width="15" height="15" fill="#FF00C7"/>
</svg>
