<svg width="390" height="150" viewBox="0 0 390 150" fill="none" xmlns="http://www.w3.org/2000/svg">
<rect x="105" y="120" width="15" height="15" fill="#E30CB4"/>
<rect x="120" y="120" width="15" height="15" fill="#E30CB4"/>
<rect x="135" y="120" width="15" height="15" fill="#E30CB4"/>
<rect x="150" y="120" width="15" height="15" fill="#E30CB4"/>
<rect x="165" y="120" width="15" height="15" fill="#E30CB4"/>
<rect x="180" y="120" width="15" height="15" fill="#E30CB4"/>
<rect x="195" y="120" width="15" height="15" fill="#E30CB4"/>
<rect x="210" y="120" width="15" height="15" fill="#E30CB4"/>
<rect x="225" y="120" width="15" height="15" fill="#E30CB4"/>
<rect x="240" y="120" width="15" height="15" fill="#E30CB4"/>
<rect x="255" y="120" width="15" height="15" fill="#E30CB4"/>
<rect x="270" y="120" width="15" height="15" fill="#E30CB4"/>
<rect x="285" y="120" width="15" height="15" fill="#E30CB4"/>
<rect x="300" y="120" width="15" height="15" fill="#E30CB4"/>
<rect x="330" y="120" width="15" height="15" fill="#E30CB4"/>
<rect x="315" y="120" width="15" height="15" fill="#E30CB4"/>
<rect x="345" y="120" width="15" height="15" fill="#E30CB4"/>
<rect x="360" y="105" width="15" height="15" fill="#E30CB4"/>
<rect x="375" y="90" width="15" height="15" fill="#E30CB4"/>
<rect x="375" y="75" width="15" height="15" fill="#E30CB4"/>
<rect x="375" y="60" width="15" height="15" fill="#E30CB4"/>
<rect x="375" y="45" width="15" height="15" fill="#E30CB4"/>
<rect x="375" y="30" width="15" height="15" fill="#E30CB4"/>
<rect x="360" y="15" width="15" height="15" fill="#E30CB4"/>
<rect x="15" y="30" width="15" height="15" fill="#E30CB4"/>
<path d="M15 45H30V60H15V45Z" fill="#E30CB4"/>
<path d="M15 60H30V75H15V60Z" fill="#E30CB4"/>
<path d="M15 75H30V90H15V75Z" fill="#E30CB4"/>
<path d="M15 90H30V105H15V90Z" fill="#E30CB4"/>
<rect x="30" y="15" width="15" height="15" fill="#E30CB4"/>
<path d="M45 0H60V15H45V0Z" fill="#E30CB4"/>
<rect x="60" width="15" height="15" fill="#E30CB4"/>
<rect x="60" y="120" width="15" height="15" fill="#E30CB4"/>
<rect x="75" y="120" width="15" height="15" fill="#E30CB4"/>
<rect x="45" y="120" width="15" height="15" fill="#E30CB4"/>
<rect x="30" y="105" width="15" height="15" fill="#E30CB4"/>
<rect x="90" y="120" width="15" height="15" fill="#E30CB4"/>
<rect x="105" width="15" height="15" fill="#E30CB4"/>
<rect x="120" width="15" height="15" fill="#E30CB4"/>
<rect x="135" width="15" height="15" fill="#E30CB4"/>
<rect x="150" width="15" height="15" fill="#E30CB4"/>
<rect x="165" width="15" height="15" fill="#E30CB4"/>
<rect x="180" width="15" height="15" fill="#E30CB4"/>
<rect x="195" width="15" height="15" fill="#E30CB4"/>
<rect x="210" width="15" height="15" fill="#E30CB4"/>
<rect x="225" width="15" height="15" fill="#E30CB4"/>
<rect x="240" width="15" height="15" fill="#E30CB4"/>
<rect x="255" width="15" height="15" fill="#E30CB4"/>
<rect x="270" width="15" height="15" fill="#E30CB4"/>
<rect x="285" width="15" height="15" fill="#E30CB4"/>
<rect x="300" width="15" height="15" fill="#E30CB4"/>
<rect x="315" width="15" height="15" fill="#E30CB4"/>
<rect x="330" width="15" height="15" fill="#E30CB4"/>
<rect x="345" width="15" height="15" fill="#E30CB4"/>
<rect x="90" width="15" height="15" fill="#E30CB4"/>
<rect x="75" width="15" height="15" fill="#E30CB4"/>
<rect x="75" y="30" width="15" height="15" fill="#FFDBF7"/>
<rect x="90" y="30" width="15" height="15" fill="#FFDBF7"/>
<rect x="120" y="30" width="15" height="15" fill="#FFDBF7"/>
<rect x="135" y="30" width="15" height="15" fill="#FFDBF7"/>
<rect x="135" y="45" width="15" height="15" fill="#FFDBF7"/>
<rect x="135" y="60" width="15" height="15" fill="#FFDBF7"/>
<rect x="135" y="75" width="15" height="15" fill="#FFDBF7"/>
<rect x="135" y="90" width="15" height="15" fill="#FFDBF7"/>
<rect x="180" y="75" width="15" height="15" fill="#FFDBF7"/>
<rect x="180" y="60" width="15" height="15" fill="#FFDBF7"/>
<rect x="180" y="45" width="15" height="15" fill="#FFDBF7"/>
<rect x="210" y="30" width="15" height="15" fill="#FFDBF7"/>
<rect x="210" y="30" width="15" height="15" fill="#FFDBF7"/>
<rect x="195" y="30" width="15" height="15" fill="#FFDBF7"/>
<rect x="210" y="45" width="15" height="15" fill="#FFDBF7"/>
<rect x="210" y="60" width="15" height="15" fill="#FFDBF7"/>
<rect x="210" y="75" width="15" height="15" fill="#FFDBF7"/>
<rect x="210" y="90" width="15" height="15" fill="#FFDBF7"/>
<path d="M240 30H255V45H240V30Z" fill="#FFDBF7"/>
<path d="M240 45H255V60H240V45Z" fill="#FFDBF7"/>
<path d="M240 60H255V75H240V60Z" fill="#FFDBF7"/>
<path d="M240 75H255V90H240V75Z" fill="#FFDBF7"/>
<path d="M240 90H255V105H240V90Z" fill="#FFDBF7"/>
<path d="M255 30H270V45H255V30Z" fill="#FFDBF7"/>
<path d="M270 45H285V60H270V45Z" fill="#FFDBF7"/>
<path d="M270 45H285V60H270V45Z" fill="#FFDBF7"/>
<path d="M270 30H285V45H270V30Z" fill="#FFDBF7"/>
<path d="M255 75H270V90H255V75Z" fill="#FFDBF7"/>
<path d="M270 60H285V75H270V60Z" fill="#FFDBF7"/>
<path d="M270 90H285V105H270V90Z" fill="#FFDBF7"/>
<path d="M300 30H315V45H300V30Z" fill="#FFDBF7"/>
<path d="M315 30H330V45H315V30Z" fill="#FFDBF7"/>
<path d="M315 45H330V60H315V45Z" fill="#FFDBF7"/>
<path d="M315 60H330V75H315V60Z" fill="#FFDBF7"/>
<path d="M315 75H330V90H315V75Z" fill="#FFDBF7"/>
<path d="M315 90H330V105H315V90Z" fill="#FFDBF7"/>
<path d="M330 30H345V45H330V30Z" fill="#FFDBF7"/>
<rect x="195" y="75" width="15" height="15" fill="#FFDBF7"/>
<rect x="150" y="30" width="15" height="15" fill="#FFDBF7"/>
<rect x="60" y="30" width="15" height="15" fill="#FFDBF7"/>
<rect x="60" y="45" width="15" height="15" fill="#FFDBF7"/>
<rect x="60" y="60" width="15" height="15" fill="#FFDBF7"/>
<rect x="75" y="60" width="15" height="15" fill="#FFDBF7"/>
<rect x="90" y="60" width="15" height="15" fill="#FFDBF7"/>
<path d="M90 75H105V90H90V75Z" fill="#FFDBF7"/>
<rect x="90" y="90" width="15" height="15" fill="#FFDBF7"/>
<rect x="75" y="90" width="15" height="15" fill="#FFDBF7"/>
<rect x="60" y="90" width="15" height="15" fill="#FFDBF7"/>
<rect x="75" y="45" width="15" height="15" fill="#FF00C7"/>
<rect x="90" y="45" width="15" height="15" fill="#FF00C7"/>
<rect x="195" y="45" width="15" height="15" fill="#FF00C7"/>
<rect x="195" y="60" width="15" height="15" fill="#FF00C7"/>
<rect x="195" y="90" width="15" height="15" fill="#FF00C7"/>
<rect x="45" y="15" width="15" height="15" fill="#FF00C7"/>
<rect x="45" y="105" width="15" height="15" fill="#FF00C7"/>
<rect x="45" y="90" width="15" height="15" fill="#FF00C7"/>
<rect x="45" y="75" width="15" height="15" fill="#FF00C7"/>
<rect x="60" y="75" width="15" height="15" fill="#FF00C7"/>
<rect x="45" y="60" width="15" height="15" fill="#FF00C7"/>
<rect x="45" y="45" width="15" height="15" fill="#FF00C7"/>
<rect x="45" y="30" width="15" height="15" fill="#FF00C7"/>
<rect x="30" y="90" width="15" height="15" fill="#FF00C7"/>
<rect x="30" y="75" width="15" height="15" fill="#FF00C7"/>
<rect x="30" y="60" width="15" height="15" fill="#FF00C7"/>
<rect x="30" y="45" width="15" height="15" fill="#FF00C7"/>
<rect x="30" y="30" width="15" height="15" fill="#FF00C7"/>
<rect x="345" y="90" width="15" height="15" fill="#FF00C7"/>
<rect x="345" y="75" width="15" height="15" fill="#FF00C7"/>
<rect x="345" y="60" width="15" height="15" fill="#FF00C7"/>
<rect x="345" y="45" width="15" height="15" fill="#FF00C7"/>
<rect x="330" y="90" width="15" height="15" fill="#FF00C7"/>
<rect x="315" y="105" width="15" height="15" fill="#FF00C7"/>
<rect x="330" y="75" width="15" height="15" fill="#FF00C7"/>
<rect x="330" y="60" width="15" height="15" fill="#FF00C7"/>
<rect x="330" y="45" width="15" height="15" fill="#FF00C7"/>
<rect x="300" y="90" width="15" height="15" fill="#FF00C7"/>
<rect x="300" y="75" width="15" height="15" fill="#FF00C7"/>
<rect x="300" y="60" width="15" height="15" fill="#FF00C7"/>
<rect x="300" y="45" width="15" height="15" fill="#FF00C7"/>
<rect x="150" y="90" width="15" height="15" fill="#FF00C7"/>
<rect x="150" y="75" width="15" height="15" fill="#FF00C7"/>
<rect x="150" y="60" width="15" height="15" fill="#FF00C7"/>
<rect x="150" y="45" width="15" height="15" fill="#FF00C7"/>
<rect x="120" y="90" width="15" height="15" fill="#FF00C7"/>
<rect x="120" y="75" width="15" height="15" fill="#FF00C7"/>
<rect x="120" y="60" width="15" height="15" fill="#FF00C7"/>
<rect x="120" y="45" width="15" height="15" fill="#FF00C7"/>
<rect x="345" y="30" width="15" height="15" fill="#FF00C7"/>
<rect x="105" y="90" width="15" height="15" fill="#FF00C7"/>
<rect x="105" y="75" width="15" height="15" fill="#FF00C7"/>
<rect x="105" y="60" width="15" height="15" fill="#FF00C7"/>
<rect x="105" y="45" width="15" height="15" fill="#FF00C7"/>
<rect x="105" y="30" width="15" height="15" fill="#FF00C7"/>
<rect x="165" y="90" width="15" height="15" fill="#FF00C7"/>
<rect x="165" y="75" width="15" height="15" fill="#FF00C7"/>
<rect x="165" y="60" width="15" height="15" fill="#FF00C7"/>
<rect x="165" y="45" width="15" height="15" fill="#FF00C7"/>
<rect x="165" y="30" width="15" height="15" fill="#FF00C7"/>
<rect x="225" y="90" width="15" height="15" fill="#FF00C7"/>
<rect x="225" y="75" width="15" height="15" fill="#FF00C7"/>
<rect x="225" y="60" width="15" height="15" fill="#FF00C7"/>
<rect x="225" y="45" width="15" height="15" fill="#FF00C7"/>
<rect x="225" y="30" width="15" height="15" fill="#FF00C7"/>
<rect x="255" y="45" width="15" height="15" fill="#FF00C7"/>
<rect x="255" y="60" width="15" height="15" fill="#FF00C7"/>
<rect x="255" y="90" width="15" height="15" fill="#FF00C7"/>
<rect x="285" y="90" width="15" height="15" fill="#FF00C7"/>
<rect x="270" y="75" width="15" height="15" fill="#FF00C7"/>
<rect x="285" y="60" width="15" height="15" fill="#FF00C7"/>
<rect x="285" y="75" width="15" height="15" fill="#FF00C7"/>
<rect x="285" y="45" width="15" height="15" fill="#FF00C7"/>
<rect x="285" y="30" width="15" height="15" fill="#FF00C7"/>
<rect x="360" y="90" width="15" height="15" fill="#FF00C7"/>
<rect x="360" y="75" width="15" height="15" fill="#FF00C7"/>
<rect x="360" y="60" width="15" height="15" fill="#FF00C7"/>
<rect x="360" y="45" width="15" height="15" fill="#FF00C7"/>
<rect x="360" y="30" width="15" height="15" fill="#FF00C7"/>
<rect x="75" y="75" width="15" height="15" fill="#FF00C7"/>
<rect x="60" y="15" width="15" height="15" fill="#FF00C7"/>
<rect x="75" y="15" width="15" height="15" fill="#FF00C7"/>
<rect x="90" y="15" width="15" height="15" fill="#FF00C7"/>
<rect x="105" y="15" width="15" height="15" fill="#FF00C7"/>
<rect x="120" y="15" width="15" height="15" fill="#FF00C7"/>
<rect x="135" y="15" width="15" height="15" fill="#FF00C7"/>
<rect x="150" y="15" width="15" height="15" fill="#FF00C7"/>
<rect x="165" y="15" width="15" height="15" fill="#FF00C7"/>
<rect x="180" y="15" width="15" height="15" fill="#FF00C7"/>
<rect x="195" y="15" width="15" height="15" fill="#FF00C7"/>
<rect x="180" y="30" width="15" height="15" fill="#FF00C7"/>
<rect x="210" y="15" width="15" height="15" fill="#FF00C7"/>
<rect x="210" y="15" width="15" height="15" fill="#FF00C7"/>
<rect x="225" y="15" width="15" height="15" fill="#FF00C7"/>
<rect x="240" y="15" width="15" height="15" fill="#FF00C7"/>
<rect x="255" y="15" width="15" height="15" fill="#FF00C7"/>
<rect x="270" y="15" width="15" height="15" fill="#FF00C7"/>
<rect x="285" y="15" width="15" height="15" fill="#FF00C7"/>
<rect x="300" y="15" width="15" height="15" fill="#FF00C7"/>
<rect x="315" y="15" width="15" height="15" fill="#FF00C7"/>
<rect x="330" y="15" width="15" height="15" fill="#FF00C7"/>
<rect x="345" y="15" width="15" height="15" fill="#FF00C7"/>
<rect x="60" y="105" width="15" height="15" fill="#FF00C7"/>
<rect x="75" y="105" width="15" height="15" fill="#FF00C7"/>
<rect x="90" y="105" width="15" height="15" fill="#FF00C7"/>
<rect x="105" y="105" width="15" height="15" fill="#FF00C7"/>
<rect x="120" y="105" width="15" height="15" fill="#FF00C7"/>
<rect x="135" y="105" width="15" height="15" fill="#FF00C7"/>
<rect x="150" y="105" width="15" height="15" fill="#FF00C7"/>
<rect x="165" y="105" width="15" height="15" fill="#FF00C7"/>
<rect x="180" y="105" width="15" height="15" fill="#FF00C7"/>
<rect x="195" y="105" width="15" height="15" fill="#FF00C7"/>
<rect x="210" y="105" width="15" height="15" fill="#FF00C7"/>
<rect x="210" y="105" width="15" height="15" fill="#FF00C7"/>
<rect x="225" y="105" width="15" height="15" fill="#FF00C7"/>
<rect x="240" y="105" width="15" height="15" fill="#FF00C7"/>
<rect x="255" y="105" width="15" height="15" fill="#FF00C7"/>
<rect x="270" y="105" width="15" height="15" fill="#FF00C7"/>
<rect x="285" y="105" width="15" height="15" fill="#FF00C7"/>
<rect x="300" y="105" width="15" height="15" fill="#FF00C7"/>
<rect x="330" y="105" width="15" height="15" fill="#FF00C7"/>
<rect x="345" y="105" width="15" height="15" fill="#FF00C7"/>
<rect x="15" y="16" width="15" height="15" fill="#F99ECF"/>
<rect y="31" width="15" height="15" fill="#F99ECF"/>
<rect y="46" width="15" height="15" fill="#F99ECF"/>
<rect y="61" width="15" height="15" fill="#F99ECF"/>
<rect y="76" width="15" height="15" fill="#F99ECF"/>
<rect y="90" width="15" height="15" fill="#F99ECF"/>
<rect x="15" y="105" width="15" height="15" fill="#F99ECF"/>
<rect x="30" y="120" width="15" height="15" fill="#F99ECF"/>
<rect x="45" y="135" width="15" height="15" fill="#F99ECF"/>
<rect x="30" y="135" width="15" height="15" fill="#F99ECF"/>
<rect x="15" y="120" width="15" height="15" fill="#F99ECF"/>
<rect y="105" width="15" height="15" fill="#F99ECF"/>
<rect x="60" y="135" width="15" height="15" fill="#F99ECF"/>
<rect x="75" y="135" width="15" height="15" fill="#F99ECF"/>
<rect x="90" y="135" width="15" height="15" fill="#F99ECF"/>
<rect x="105" y="135" width="15" height="15" fill="#F99ECF"/>
<rect x="120" y="135" width="15" height="15" fill="#F99ECF"/>
<rect x="135" y="135" width="15" height="15" fill="#F99ECF"/>
<rect x="150" y="135" width="15" height="15" fill="#F99ECF"/>
<rect x="165" y="135" width="15" height="15" fill="#F99ECF"/>
<rect x="180" y="135" width="15" height="15" fill="#F99ECF"/>
<rect x="195" y="135" width="15" height="15" fill="#F99ECF"/>
<rect x="210" y="135" width="15" height="15" fill="#F99ECF"/>
<rect x="225" y="135" width="15" height="15" fill="#F99ECF"/>
<rect x="240" y="135" width="15" height="15" fill="#F99ECF"/>
<rect x="255" y="135" width="15" height="15" fill="#F99ECF"/>
<rect x="270" y="135" width="15" height="15" fill="#F99ECF"/>
<rect x="285" y="135" width="15" height="15" fill="#F99ECF"/>
<rect x="300" y="135" width="15" height="15" fill="#F99ECF"/>
<rect x="330" y="135" width="15" height="15" fill="#F99ECF"/>
<rect x="315" y="135" width="15" height="15" fill="#F99ECF"/>
<rect x="345" y="135" width="15" height="15" fill="#F99ECF"/>
<rect x="360" y="120" width="15" height="15" fill="#F99ECF"/>
<rect x="375" y="105" width="15" height="15" fill="#F99ECF"/>
<rect x="30" y="1" width="15" height="15" fill="#F99ECF"/>
<rect x="180" y="90" width="15" height="15" fill="#FFDBF7"/>
<rect x="180" y="30" width="15" height="15" fill="#FFDBF7"/>
</svg>
