<svg width="102" height="119" viewBox="0 0 102 119" fill="none" xmlns="http://www.w3.org/2000/svg">
<rect x="34" width="17" height="17" fill="#FF00C7"/>
<rect x="17" width="17" height="17" fill="#FF00C7"/>
<rect x="17" y="17" width="17" height="17" fill="#FF00C7"/>
<rect x="17" y="34" width="17" height="17" fill="#FF00C7"/>
<rect x="17" y="51" width="17" height="17" fill="#FF00C7"/>
<rect x="17" y="68" width="17" height="17" fill="#FF00C7"/>
<rect x="17" y="85" width="17" height="17" fill="#FF00C7"/>
<rect x="34" y="17" width="17" height="17" fill="#FF00C7"/>
<rect x="34" y="34" width="17" height="17" fill="#FF00C7"/>
<rect x="34" y="51" width="17" height="17" fill="#FF00C7"/>
<rect x="34" y="68" width="17" height="17" fill="#FF00C7"/>
<rect x="34" y="85" width="17" height="17" fill="#FF00C7"/>
<rect x="51" y="68" width="17" height="17" fill="#FF00C7"/>
<rect x="51" y="51" width="17" height="17" fill="#FF00C7"/>
<rect x="51" y="34" width="17" height="17" fill="#FF00C7"/>
<rect x="51" y="17" width="17" height="17" fill="#FF00C7"/>
<rect x="68" y="34" width="17" height="17" fill="#FF00C7"/>
<rect x="68" y="51" width="17" height="17" fill="#FF00C7"/>
<rect x="85" y="42" width="17" height="17" fill="#FF00C7"/>
<rect y="17" width="17" height="17" fill="#F99ECF"/>
<rect y="34" width="17" height="17" fill="#F99ECF"/>
<rect y="51" width="17" height="17" fill="#F99ECF"/>
<rect y="70" width="17" height="17" fill="#F99ECF"/>
<rect y="68" width="17" height="17" fill="#F99ECF"/>
<rect y="85" width="17" height="17" fill="#F99ECF"/>
<rect y="100" width="17" height="17" fill="#F99ECF"/>
<rect y="102" width="17" height="17" fill="#F99ECF"/>
<rect x="17" y="102" width="17" height="17" fill="#F99ECF"/>
<rect x="34" y="102" width="17" height="17" fill="#F99ECF"/>
<rect x="51" y="85" width="17" height="17" fill="#F99ECF"/>
<rect x="68" y="68" width="17" height="17" fill="#F99ECF"/>
<rect x="85" y="59" width="17" height="17" fill="#F99ECF"/>
<rect width="17" height="17" fill="#F99ECF"/>
<rect x="17" y="85" width="17" height="17" fill="#E30CB4"/>
<rect x="34" y="85" width="17" height="17" fill="#E30CB4"/>
<rect x="51" y="68" width="17" height="17" fill="#E30CB4"/>
<rect x="68" y="51" width="17" height="17" fill="#E30CB4"/>
<rect x="85" y="42" width="17" height="17" fill="#E30CB4"/>
<rect x="68" y="34" width="17" height="17" fill="#E30CB4"/>
<rect x="51" y="17" width="17" height="17" fill="#E30CB4"/>
<rect x="34" width="17" height="17" fill="#E30CB4"/>
<rect x="17" width="17" height="17" fill="#E30CB4"/>
<rect x="17" y="17" width="17" height="17" fill="#E30CB4"/>
<rect x="17" y="34" width="17" height="17" fill="#E30CB4"/>
<rect x="17" y="51" width="17" height="17" fill="#E30CB4"/>
<rect x="17" y="68" width="17" height="17" fill="#E30CB4"/>
<path d="M34 17H51V34H34V17Z" fill="#FFDBF7"/>
<path d="M51 34H68V51H51V34Z" fill="#FFDBF7"/>
</svg>
